HIERARCHY
ROOT Hips
{
 OFFSET 0.000000 0.000000 0.000000
 CHANNELS 6 Xposition Yposition Zposition Yrotation Xrotation Zrotation
 JOINT Chest
 {
  OFFSET 0.000000 9.581000 -0.001100
  CHANNELS 3 Yrotation Xrotation Zrotation
  JOINT Chest2
  {
   OFFSET 0.000000 9.561100 0.002200
   CHANNELS 3 Yrotation Xrotation Zrotation
   JOINT Chest3
   {
    OFFSET 0.000000 9.521100 0.000000
    CHANNELS 3 Yrotation Xrotation Zrotation
    JOINT Chest4
    {
     OFFSET 0.000000 9.511400 0.000000
     CHANNELS 3 Yrotation Xrotation Zrotation
     JOINT Neck
     {
      OFFSET 0.000000 14.375100 0.000000
      CHANNELS 3 Yrotation Xrotation Zrotation
      JOINT Head
      {
       OFFSET 0.000000 8.901200 0.004600
       CHANNELS 3 Yrotation Xrotation Zrotation
       End Site
       {
        OFFSET 0.000000 16.962200 0.002400
       }
      }
     }
     JOINT RightCollar
     {
      OFFSET -2.920100 9.518800 0.000000
      CHANNELS 3 Yrotation Xrotation Zrotation
      JOINT RightShoulder
      {
       OFFSET -13.664500 0.000000 0.000000
       CHANNELS 3 Yrotation Xrotation Zrotation
       JOINT RightElbow
       {
        OFFSET 0.000000 -29.999200 0.000000
        CHANNELS 3 Yrotation Xrotation Zrotation
        JOINT RightWrist
        {
         OFFSET 0.000000 -24.253600 0.000000
         CHANNELS 3 Yrotation Xrotation Zrotation
         End Site
         {
          OFFSET 0.000000 -17.918900 0.000000
         }
        }
       }
      }
     }
     JOINT LeftCollar
     {
      OFFSET 2.920100 9.518800 0.000000
      CHANNELS 3 Yrotation Xrotation Zrotation
      JOINT LeftShoulder
      {
       OFFSET 13.664500 0.000000 0.000000
       CHANNELS 3 Yrotation Xrotation Zrotation
       JOINT LeftElbow
       {
        OFFSET 0.000000 -29.999200 0.000000
        CHANNELS 3 Yrotation Xrotation Zrotation
        JOINT LeftWrist
        {
         OFFSET 0.000000 -24.253600 0.000000
         CHANNELS 3 Yrotation Xrotation Zrotation
         End Site
         {
          OFFSET 0.000000 -17.918900 0.000000
         }
        }
       }
      }
     }
    }
   }
  }
 }
 JOINT RightHip
 {
  OFFSET -7.797300 0.005300 0.000500
  CHANNELS 3 Yrotation Xrotation Zrotation
  JOINT RightKnee
  {
   OFFSET 0.000000 -40.663400 -0.000500
   CHANNELS 3 Yrotation Xrotation Zrotation
   JOINT RightAnkle
   {
    OFFSET 0.000000 -39.523700 -0.000900
    CHANNELS 3 Yrotation Xrotation Zrotation
    JOINT RightToe
    {
     OFFSET 0.000000 -6.418000 14.485300
     CHANNELS 3 Yrotation Xrotation Zrotation
     End Site
     {
      OFFSET 0.000000 -1.465200 6.326400
     }
    }
   }
  }
 }
 JOINT LeftHip
 {
  OFFSET 7.797300 0.005300 0.000500
  CHANNELS 3 Yrotation Xrotation Zrotation
  JOINT LeftKnee
  {
   OFFSET 0.000000 -40.663400 -0.000500
   CHANNELS 3 Yrotation Xrotation Zrotation
   JOINT LeftAnkle
   {
    OFFSET 0.000000 -39.523700 -0.000900
    CHANNELS 3 Yrotation Xrotation Zrotation
    JOINT LeftToe
    {
     OFFSET 0.000000 -6.418000 14.485300
     CHANNELS 3 Yrotation Xrotation Zrotation
     End Site
     {
      OFFSET 0.000000 -1.465200 6.326400
     }
    }
   }
  }
 }
}
MOTION
Frames: 6
Frame Time: 0.008333
-23.694620 126.457575 52.270875 -179.362148 -29.226853 -3.180022 -0.702377 20.773555 1.338492 -0.118079 2.715059 0.192060 -0.184083 4.379602 0.300685 -0.619956 17.755698 1.166274 0.038434 15.703934 1.995661 -0.375913 -9.306813 1.981842 -7.756438 -3.796586 -0.899857 -8.137604 3.101840 -9.042623 144.340683 -55.184355 -126.552149 -0.948140 -4.614932 -43.822160 -7.104283 -4.007030 1.731844 4.877010 -8.950438 6.207695 -81.255080 -83.543692 68.324107 -16.430312 -6.318598 35.685605 -8.169700 -52.415777 3.673775 -14.549426 70.636038 -17.168808 17.972257 11.668874 5.510925 -0.001357 0.003910 -0.000601 -8.966831 -53.674714 -3.411565 39.730356 66.410888 30.758326 4.083304 37.224470 5.605935 -0.065342 -0.009014 -0.028947
-23.695782 126.458703 52.275199 -179.360616 -29.248132 -3.176255 -0.699567 20.742329 1.325008 -0.117175 2.693431 0.188990 -0.183807 4.366280 0.298174 -0.620903 17.755430 1.162160 0.066281 15.736456 1.903131 -0.360942 -9.206740 1.974138 -7.758153 -3.804014 -0.911366 -8.118689 3.217556 -9.057664 144.353731 -55.194014 -126.555477 -0.962916 -4.571678 -43.715634 -7.107649 -3.961253 1.739605 4.884568 -8.968598 6.203401 -81.150751 -83.572691 68.160079 -16.455745 -6.259222 35.688997 -8.180760 -52.395227 3.667207 -14.522657 70.632690 -17.141752 17.981673 11.669861 5.506447 0.002610 0.007017 0.001156 -9.044271 -53.656451 -3.287376 39.680719 66.458828 30.681636 3.820602 37.272757 5.311976 -0.065632 0.001867 -0.029080
-23.696496 126.459906 52.280300 -179.362397 -29.267838 -3.172444 -0.695035 20.735334 1.317048 -0.111421 2.644751 0.180328 -0.185200 4.371284 0.299573 -0.623531 17.738833 1.156133 0.082773 15.795024 1.867125 -0.335574 -9.145552 1.932858 -7.764371 -3.807783 -0.920538 -8.109192 3.326053 -9.071002 144.375469 -55.202719 -126.551884 -0.972346 -4.532035 -43.608481 -7.098205 -4.021522 1.745790 4.869500 -8.841574 6.214878 -81.312792 -83.608335 68.284915 -16.469047 -6.239187 35.644997 -8.179599 -52.377123 3.658975 -14.509213 70.626531 -17.121238 17.987720 11.679453 5.498610 0.004882 0.007192 0.002163 -9.091042 -53.631108 -3.199703 39.652215 66.496751 30.639121 3.572765 37.282255 5.042786 -0.070051 0.013454 -0.031043
-23.699112 126.461694 52.284893 -179.341389 -29.293963 -3.166861 -0.714178 20.735035 1.295558 -0.107338 2.609219 0.178011 -0.185999 4.362601 0.297799 -0.628394 17.723804 1.149779 0.099239 15.851438 1.831586 -0.310329 -9.086607 1.892060 -7.771151 -3.807661 -0.933563 -8.111773 3.426442 -9.081639 144.412751 -55.216530 -126.513905 -0.969520 -4.499688 -43.537990 -7.088357 -4.042469 1.747113 4.915923 -8.865332 6.205629 -80.480526 -83.598051 67.356652 -16.447105 -6.319581 35.564265 -8.141246 -52.352657 3.608722 -14.535032 70.624443 -17.123936 17.968079 11.680429 5.488746 0.009387 0.009384 0.004160 -9.098426 -53.600508 -3.196583 39.636074 66.512506 30.618978 3.404435 37.288618 4.858831 -0.110205 0.005115 -0.048832
-23.696770 126.466802 52.284641 -179.307161 -29.357417 -3.195985 -0.726416 20.742699 1.304669 -0.111256 2.602449 0.179873 -0.187028 4.355210 0.295948 -0.634086 17.711010 1.142819 0.115558 15.905059 1.796778 -0.296616 -9.036252 1.873799 -7.778739 -3.806107 -0.952449 -8.119731 3.522508 -9.085065 144.462492 -55.229766 -126.475240 -0.960914 -4.474517 -43.479943 -7.080167 -4.043183 1.746785 4.959556 -8.864856 6.196726 -80.033047 -83.597421 66.829430 -16.448495 -6.352821 35.544578 -8.146718 -52.284388 3.595020 -14.550403 70.623286 -17.121480 18.015856 11.684409 5.484566 0.012068 0.000548 0.005347 -9.175449 -53.480120 -3.047782 39.421402 66.549761 30.347111 3.119264 37.273565 4.570149 -0.034976 -0.003013 -0.015496
-23.696603 126.470878 52.286208 -179.303210 -29.412944 -3.195288 -0.723021 20.738880 1.299823 -0.114737 2.629443 0.181021 -0.187562 4.351860 0.295021 -0.638330 17.663533 1.134123 0.132121 15.956657 1.763816 -0.305929 -8.998612 1.898621 -7.784067 -3.803314 -0.978851 -8.121191 3.611865 -9.075720 144.494182 -55.240176 -126.426480 -0.947849 -4.464858 -43.488157 -7.075253 -4.001952 1.745536 5.001200 -8.885526 6.185498 -80.201046 -83.648798 66.914429 -16.481424 -6.290571 35.533365 -8.108800 -52.228942 3.563581 -14.578884 70.620313 -17.133910 18.025251 11.687498 5.479534 0.013202 -0.000955 0.005849 -9.154369 -53.375199 -2.991861 39.279712 66.623017 30.163279 2.953419 37.152695 4.393708 -0.026989 0.015651 -0.011961
